<mxfile host="Electron" agent="Mozilla/5.0 (Windows NT 10.0; Win64; x64) AppleWebKit/537.36 (KHTML, like Gecko) draw.io/28.0.6 Chrome/138.0.7204.100 Electron/37.2.3 Safari/537.36" version="28.0.6">
  <diagram name="Page-1" id="Y9NzkTaFs6afvwNTigCa">
    <mxGraphModel dx="2066" dy="1202" grid="1" gridSize="10" guides="1" tooltips="1" connect="1" arrows="1" fold="1" page="1" pageScale="1" pageWidth="827" pageHeight="1169" math="0" shadow="0">
      <root>
        <mxCell id="0" />
        <mxCell id="1" parent="0" />
        <mxCell id="VoOcGuzaYwF9oy1n2nMq-5" style="edgeStyle=orthogonalEdgeStyle;rounded=0;orthogonalLoop=1;jettySize=auto;html=1;exitX=0.25;exitY=1;exitDx=0;exitDy=0;startArrow=classic;startFill=1;" parent="1" source="VoOcGuzaYwF9oy1n2nMq-1" target="VoOcGuzaYwF9oy1n2nMq-2" edge="1">
          <mxGeometry relative="1" as="geometry" />
        </mxCell>
        <mxCell id="VoOcGuzaYwF9oy1n2nMq-1" value="&lt;b&gt;Django&lt;/b&gt;.&lt;div&gt;Serves the front end and manages the back end&lt;/div&gt;" style="whiteSpace=wrap;html=1;aspect=fixed;fillColor=#d5e8d4;strokeColor=#82b366;" parent="1" vertex="1">
          <mxGeometry x="314" y="220" width="100" height="100" as="geometry" />
        </mxCell>
        <mxCell id="VoOcGuzaYwF9oy1n2nMq-2" value="&lt;b&gt;Database&lt;/b&gt;. Contains information about the sermons, the link to the sermon audio file and the link to the sermon PDF file" style="rounded=0;whiteSpace=wrap;html=1;fillColor=#dae8fc;strokeColor=#6c8ebf;" parent="1" vertex="1">
          <mxGeometry x="220" y="400" width="120" height="90" as="geometry" />
        </mxCell>
        <mxCell id="VoOcGuzaYwF9oy1n2nMq-7" style="edgeStyle=orthogonalEdgeStyle;rounded=0;orthogonalLoop=1;jettySize=auto;html=1;exitX=0.5;exitY=0;exitDx=0;exitDy=0;entryX=0.75;entryY=1;entryDx=0;entryDy=0;startArrow=classic;startFill=1;" parent="1" source="VoOcGuzaYwF9oy1n2nMq-3" target="VoOcGuzaYwF9oy1n2nMq-1" edge="1">
          <mxGeometry relative="1" as="geometry" />
        </mxCell>
        <mxCell id="VoOcGuzaYwF9oy1n2nMq-3" value="&lt;b&gt;Storage. &lt;/b&gt;For storing audio files and PDFs of sermons" style="whiteSpace=wrap;html=1;aspect=fixed;fillColor=#e1d5e7;strokeColor=#9673a6;" parent="1" vertex="1">
          <mxGeometry x="400" y="400" width="90" height="90" as="geometry" />
        </mxCell>
        <mxCell id="oZ3JtISbtGTLe3o_H_NS-3" style="edgeStyle=orthogonalEdgeStyle;rounded=0;orthogonalLoop=1;jettySize=auto;html=1;exitX=0.5;exitY=0.5;exitDx=0;exitDy=0;exitPerimeter=0;entryX=0.5;entryY=0;entryDx=0;entryDy=0;startArrow=classic;startFill=1;" edge="1" parent="1" source="oZ3JtISbtGTLe3o_H_NS-1" target="VoOcGuzaYwF9oy1n2nMq-1">
          <mxGeometry relative="1" as="geometry" />
        </mxCell>
        <mxCell id="oZ3JtISbtGTLe3o_H_NS-1" value="User&lt;div&gt;&lt;br&gt;&lt;/div&gt;" style="shape=umlActor;verticalLabelPosition=bottom;verticalAlign=top;html=1;outlineConnect=0;" vertex="1" parent="1">
          <mxGeometry x="265" y="130" width="30" height="60" as="geometry" />
        </mxCell>
      </root>
    </mxGraphModel>
  </diagram>
</mxfile>
